<svg width="150" height="150" viewBox="0 0 150 150" fill="none" xmlns="http://www.w3.org/2000/svg">
<rect width="150" height="150" rx="35" fill="white"/>
<path d="M78.4035 141.353L87.4791 123.958C88.9917 116.647 82.0771 108.393 39.0756 114.126C31.5126 115.135 17.1098 117.152 16.7602 121.689C16.2942 127.74 59.1252 138.048 78.4035 141.353Z" fill="#4C4C4C" fill-opacity="0.3"/>
<path d="M70.0841 139.841L38.3194 123.202L38.5 101L29.5 28.5L70.8404 51.3531L78.4035 141.353L70.0841 139.841Z" fill="url(#paint0_linear_63_381)"/>
<g filter="url(#filter0_d_63_381)">
<path d="M65.5462 126.983L31.5125 45.3026L37.5629 100.5V123.958L70.084 139.841L78.4033 141.353L65.5462 126.983Z" fill="#2B2B2B"/>
</g>
<path d="M112.437 123.202C112.437 123.202 82.9412 141.353 78.4034 141.353L70.8403 51.3531L98.8236 43.0337L120.756 28.6639L116 59L112.437 123.202Z" fill="url(#paint1_linear_63_381)"/>
<path d="M88.9917 116.395L73.8656 87.6557L78.4034 141.353C79.1597 141.353 88.9917 130.765 88.9917 130.765V116.395Z" fill="url(#paint2_linear_63_381)"/>
<path d="M88.9916 106.563L70.8403 51.353L98.8236 43.0337L110.924 78.58L104.874 88.412L88.9916 106.563Z" fill="url(#paint3_linear_63_381)"/>
<path d="M73.8656 40.7648C65.5462 40.7648 33.0251 25.6387 33.0251 25.6387L73.8656 9L118.488 25.6387L104.118 34.7143C104.118 34.7143 82.1849 40.7648 73.8656 40.7648Z" fill="#D9D9D9" stroke="#D9D9D9" stroke-linecap="round"/>
<defs>
<filter id="filter0_d_63_381" x="27.5125" y="45.3026" width="54.8909" height="104.051" filterUnits="userSpaceOnUse" color-interpolation-filters="sRGB">
<feFlood flood-opacity="0" result="BackgroundImageFix"/>
<feColorMatrix in="SourceAlpha" type="matrix" values="0 0 0 0 0 0 0 0 0 0 0 0 0 0 0 0 0 0 127 0" result="hardAlpha"/>
<feOffset dy="4"/>
<feGaussianBlur stdDeviation="2"/>
<feComposite in2="hardAlpha" operator="out"/>
<feColorMatrix type="matrix" values="0 0 0 0 0 0 0 0 0 0 0 0 0 0 0 0 0 0 0.25 0"/>
<feBlend mode="normal" in2="BackgroundImageFix" result="effect1_dropShadow_63_381"/>
<feBlend mode="normal" in="SourceGraphic" in2="effect1_dropShadow_63_381" result="shape"/>
</filter>
<linearGradient id="paint0_linear_63_381" x1="54.2017" y1="28.6639" x2="54.2017" y2="141.353" gradientUnits="userSpaceOnUse">
<stop offset="0.3" stop-color="#333333"/>
<stop offset="0.6" stop-color="#444444"/>
</linearGradient>
<linearGradient id="paint1_linear_63_381" x1="95.7984" y1="28.6639" x2="95.7984" y2="140.597" gradientUnits="userSpaceOnUse">
<stop offset="0.298077" stop-color="#5E5E5E"/>
<stop offset="0.6" stop-color="#4F4F4F"/>
</linearGradient>
<linearGradient id="paint2_linear_63_381" x1="81.4286" y1="87.6557" x2="81.4286" y2="141.353" gradientUnits="userSpaceOnUse">
<stop stop-color="#B3B3B3"/>
<stop offset="1" stop-color="#848484"/>
</linearGradient>
<linearGradient id="paint3_linear_63_381" x1="90.8824" y1="43.0337" x2="90.8824" y2="106.563" gradientUnits="userSpaceOnUse">
<stop stop-color="#B3B3B3"/>
<stop offset="1" stop-color="#848484"/>
</linearGradient>
</defs>
</svg>
