<svg width="150" height="150" viewBox="0 0 150 150" fill="none" xmlns="http://www.w3.org/2000/svg">
<rect width="150" height="150" rx="35" fill="#0A0A0A"/>
<path d="M70.7962 133.629L41.9962 118.543L42.16 98.4131L34 32.68L71.4819 53.4L78.339 135L70.7962 133.629Z" fill="url(#paint0_linear_73_319)"/>
<path d="M66.6817 121.971L35.8246 47.9143L41.3103 97.9598V119.229L70.796 133.629L78.3389 135L66.6817 121.971Z" fill="#2B2B2B"/>
<path d="M111.973 116.546C111.973 116.546 82.4532 135 78.339 135L71.4818 53.4L96.8532 45.8571L116.739 32.8286L112.426 60.3332L110.613 86.1731L111.973 116.546Z" fill="url(#paint1_linear_73_319)"/>
<path d="M87.939 112.371L74.2247 86.3143L78.339 135C79.0247 135 87.939 125.4 87.939 125.4V112.371Z" fill="url(#paint2_linear_73_319)"/>
<path d="M87.939 103.457L71.4818 53.4L96.8532 45.8571L107.825 78.0857L102.339 87L87.939 103.457Z" fill="url(#paint3_linear_73_319)"/>
<path d="M74.2247 43.8C66.6819 43.8 37.1962 30.0857 37.1962 30.0857L74.2247 15L114.682 30.0857L101.653 38.3143C101.653 38.3143 81.7676 43.8 74.2247 43.8Z" fill="#D9D9D9" stroke="#D9D9D9" stroke-linecap="round"/>
<defs>
<linearGradient id="paint0_linear_73_319" x1="56.3962" y1="32.8286" x2="56.3962" y2="135" gradientUnits="userSpaceOnUse">
<stop offset="0.3" stop-color="#333333"/>
<stop offset="0.6" stop-color="#444444"/>
</linearGradient>
<linearGradient id="paint1_linear_73_319" x1="94.1104" y1="32.8286" x2="94.1104" y2="134.314" gradientUnits="userSpaceOnUse">
<stop offset="0.298077" stop-color="#5E5E5E"/>
<stop offset="0.6" stop-color="#4F4F4F"/>
</linearGradient>
<linearGradient id="paint2_linear_73_319" x1="81.0819" y1="86.3143" x2="81.0819" y2="135" gradientUnits="userSpaceOnUse">
<stop stop-color="#B3B3B3"/>
<stop offset="1" stop-color="#848484"/>
</linearGradient>
<linearGradient id="paint3_linear_73_319" x1="89.6532" y1="45.8571" x2="89.6532" y2="103.457" gradientUnits="userSpaceOnUse">
<stop stop-color="#B3B3B3"/>
<stop offset="1" stop-color="#848484"/>
</linearGradient>
</defs>
</svg>
